<svg width="25" height="25" viewBox="0 0 25 25" fill="none" xmlns="http://www.w3.org/2000/svg">
<path d="M17.7084 18.75C17.4321 18.75 17.1672 18.8598 16.9718 19.0551C16.7765 19.2505 16.6667 19.5154 16.6667 19.7917C16.6667 20.0679 16.7765 20.3329 16.9718 20.5282C17.1672 20.7236 17.4321 20.8333 17.7084 20.8333H19.7917C20.068 20.8333 20.3329 20.7236 20.5283 20.5282C20.7236 20.3329 20.8334 20.0679 20.8334 19.7917L20.8334 5.20835C20.8334 4.93208 20.7236 4.66713 20.5283 4.47178C20.3329 4.27642 20.068 4.16668 19.7917 4.16668H17.7084C17.4321 4.16668 17.1672 4.27642 16.9718 4.47178C16.7765 4.66713 16.6667 4.93208 16.6667 5.20835C16.6667 5.48461 16.7765 5.74957 16.9718 5.94492C17.1672 6.14027 17.4321 6.25001 17.7084 6.25001H18.75V18.75H17.7084Z" fill="#B4B4B4"/>
<path d="M3.3125 13.1042L6.25 17.2708C6.40931 17.4954 6.65104 17.6478 6.92237 17.6946C7.19369 17.7415 7.47253 17.679 7.69791 17.5208C7.81057 17.4419 7.90648 17.3414 7.9801 17.2252C8.05371 17.109 8.10358 16.9794 8.12683 16.8438C8.15007 16.7082 8.14623 16.5693 8.11552 16.4352C8.08481 16.3011 8.02785 16.1745 7.94791 16.0625L6.15625 13.5417H14.5833C14.8596 13.5417 15.1246 13.4319 15.3199 13.2366C15.5153 13.0412 15.625 12.7763 15.625 12.5C15.625 12.2237 15.5153 11.9588 15.3199 11.7634C15.1246 11.5681 14.8596 11.4583 14.5833 11.4583H6.25L8.125 8.95833C8.20707 8.8489 8.26679 8.72437 8.30074 8.59186C8.33469 8.45934 8.34221 8.32144 8.32286 8.18602C8.30352 8.0506 8.25769 7.92032 8.18799 7.80261C8.1183 7.6849 8.0261 7.58208 7.91667 7.5C7.73636 7.36477 7.51705 7.29167 7.29167 7.29167C7.12995 7.29167 6.97046 7.32932 6.82582 7.40164C6.68118 7.47396 6.55536 7.57896 6.45833 7.70833L3.33333 11.875C3.19992 12.0512 3.126 12.2652 3.12226 12.4862C3.11851 12.7071 3.18514 12.9236 3.3125 13.1042Z" fill="#B4B4B4"/>
</svg>
