<svg width="245" height="196" viewBox="0 0 245 196" fill="none" xmlns="http://www.w3.org/2000/svg">
<path d="M165.737 3.47573L144.274 6.98403C138.214 7.97463 132.555 10.6514 127.945 14.7081C124.359 17.8643 120.124 20.1964 115.539 21.5402L99.7578 26.1658C95.5993 27.3847 91.5918 29.0697 87.8118 31.1888L78.708 36.2925C67.3561 42.6564 53.551 42.827 42.0454 36.7454L35.7087 33.396C29.2662 29.9907 21.6138 29.7448 14.966 32.7296C6.46758 36.5452 1 44.9934 1 54.309V76.8961C1 79.9606 1.24058 83.0204 1.71951 86.0473L10.2325 139.849C12.3401 153.169 19.1735 165.285 29.4824 173.979C45.2083 187.242 66.9304 190.838 86.0912 183.349L93.0126 180.644C96.639 179.227 100.498 178.5 104.392 178.5C115.592 178.5 125.937 172.508 131.509 162.792L140.04 147.917C141.345 145.643 142.465 143.268 143.39 140.814C149.636 124.247 164.323 112.328 181.821 109.625L197.231 107.245C208.784 105.46 219.485 100.091 227.822 91.8952L230.905 88.8648C239.602 80.3154 244.5 68.631 244.5 56.4356C244.5 39.0391 234.575 23.167 218.934 15.5507L206.371 9.43278C193.767 3.29538 179.572 1.21426 165.737 3.47573Z" fill="#C4C4C4" fill-opacity="0.04" stroke="#C4C4C4" stroke-opacity="0.04"/>
<path fill-rule="evenodd" clip-rule="evenodd" d="M81 29C78.2386 29 76 31.2386 76 34V96C76 98.7614 78.2386 101 81 101H167.23L184.319 105.623C185.062 105.824 185.744 105.145 185.546 104.401L181 87.2703V34C181 31.2386 178.761 29 176 29H81Z" fill="#ADADB8" fill-opacity="0.22"/>
<path fill-rule="evenodd" clip-rule="evenodd" d="M96 49H160V52H96V49ZM96 64H160V67H96V64ZM160 79H96V82H160V79Z" fill="#1F1F23" fill-opacity="0.55"/>
<rect x="87" y="19.9083" width="11.9083" height="2" transform="rotate(-90 87 19.9083)" fill="#ADADB8" fill-opacity="0.22"/>
<rect x="77.4987" y="21.7262" width="11.9083" height="2" transform="rotate(-117.5 77.4987 21.7262)" fill="#ADADB8" fill-opacity="0.22"/>
<rect x="69.6379" y="28.0248" width="11.9083" height="2" transform="rotate(-136.5 69.6379 28.0248)" fill="#ADADB8" fill-opacity="0.22"/>
<rect x="65.3572" y="36.4883" width="11.9083" height="2" transform="rotate(-162.5 65.3572 36.4883)" fill="#ADADB8" fill-opacity="0.22"/>
<path fill-rule="evenodd" clip-rule="evenodd" d="M47.6224 104C44.861 104 42.6224 106.239 42.6224 109V155.613L40.858 168.771L58.1108 161.673H121.729C124.491 161.673 126.729 159.435 126.729 156.673V109C126.729 106.239 124.491 104 121.729 104H47.6224Z" fill="#ADADB8" fill-opacity="0.22"/>
<path fill-rule="evenodd" clip-rule="evenodd" d="M59.8443 124.826C59.1808 124.826 58.6428 125.364 58.6428 126.028C58.6428 126.692 59.1808 127.229 59.8443 127.229H108.706C109.37 127.229 109.908 126.692 109.908 126.028C109.908 125.364 109.37 124.826 108.706 124.826H59.8443ZM59.8443 136.842C59.1808 136.842 58.6428 137.38 58.6428 138.043C58.6428 138.707 59.1808 139.245 59.8443 139.245H108.706C109.37 139.245 109.908 138.707 109.908 138.043C109.908 137.38 109.37 136.842 108.706 136.842H59.8443Z" fill="#1F1F23" fill-opacity="0.55"/>
<rect x="35" y="67.9999" width="8" height="2" fill="#ADADB8" fill-opacity="0.22"/>
<rect x="38" y="73" width="8" height="2" transform="rotate(-90 38 73)" fill="#ADADB8" fill-opacity="0.22"/>
<rect x="199" y="107" width="8" height="2" fill="#ADADB8" fill-opacity="0.22"/>
<rect x="202" y="112" width="8" height="2" transform="rotate(-90 202 112)" fill="#ADADB8" fill-opacity="0.22"/>
<rect x="161" y="2.99988" width="8" height="2" fill="#ADADB8" fill-opacity="0.22"/>
<rect x="164" y="8" width="8" height="2" transform="rotate(-90 164 8)" fill="#ADADB8" fill-opacity="0.22"/>
<rect x="141" y="169" width="8" height="2" fill="#ADADB8" fill-opacity="0.22"/>
<rect x="144" y="174" width="8" height="2" transform="rotate(-90 144 174)" fill="#ADADB8" fill-opacity="0.22"/>
<circle cx="16" cy="131" r="4" fill="#ADADB8" fill-opacity="0.22"/>
<circle cx="153" cy="125" r="4" fill="#ADADB8" fill-opacity="0.22"/>
<circle cx="203" cy="25" r="4" fill="#ADADB8" fill-opacity="0.22"/>
<circle cx="72" cy="182" r="4" fill="#ADADB8" fill-opacity="0.22"/>
</svg>
