<svg width="25" height="25" viewBox="0 0 25 25" fill="none" xmlns="http://www.w3.org/2000/svg">
<path d="M14.7949 15.5762C14.595 15.5762 14.3951 15.4999 14.2425 15.3473L9.65267 10.7574C9.34755 10.4524 9.34755 9.95769 9.65267 9.65261C9.95775 9.34749 10.4524 9.34749 10.7575 9.65261L15.3474 14.2425C15.6525 14.5475 15.6525 15.0422 15.3474 15.3473C15.1948 15.4999 14.9949 15.5762 14.7949 15.5762Z" fill="#E0E0E0"/>
<path d="M7.03143 18.75C6.82796 18.75 6.6282 18.6705 6.47884 18.5211C6.25789 18.3001 6.18983 17.9688 6.30589 17.6786L9.43089 9.86606C9.51028 9.66758 9.66761 9.51025 9.8661 9.43086L17.6786 6.30586C17.9688 6.18979 18.3002 6.25786 18.5212 6.47881C18.7421 6.6998 18.8102 7.0312 18.6941 7.32139L15.5691 15.1339C15.4897 15.3324 15.3324 15.4897 15.1339 15.5691L7.32142 18.6941C7.22737 18.7317 7.12899 18.75 7.03143 18.75ZM10.7573 10.7573L8.43367 16.5664L14.2428 14.2427L16.5664 8.43364L10.7573 10.7573Z" fill="#E0E0E0"/>
<path d="M12.5 25C9.16113 25 6.02212 23.6998 3.66113 21.3389C1.30015 18.9779 0 15.8389 0 12.5C0 9.16113 1.3002 6.02212 3.66113 3.66113C6.02207 1.30015 9.16113 0 12.5 0C15.8389 0 18.9779 1.3002 21.3389 3.66113C23.6999 6.02207 25 9.16113 25 12.5C25 15.8389 23.6998 18.9779 21.3389 21.3389C18.9779 23.6999 15.8389 25 12.5 25ZM12.5 1.5625C6.46904 1.5625 1.5625 6.46904 1.5625 12.5C1.5625 18.531 6.46904 23.4375 12.5 23.4375C18.531 23.4375 23.4375 18.531 23.4375 12.5C23.4375 6.46904 18.531 1.5625 12.5 1.5625Z" fill="#E0E0E0"/>
</svg>
