<svg width="20" height="20" viewBox="0 0 20 20" fill="none" xmlns="http://www.w3.org/2000/svg">
<path d="M10.2382 0.199997C5.0775 0.199997 0.875977 4.598 0.875977 10C0.875977 15.404 5.0775 19.8 10.2382 19.8C15.4008 19.8 19.6004 15.402 19.6004 10C19.6004 4.596 15.4008 0.199997 10.2382 0.199997ZM13.1214 5.758C13.1691 4.874 13.429 4.128 14.3633 4.128C15.4294 4.128 15.7695 5.12 15.7256 6.074C15.6778 7.016 15.2899 7.896 14.2811 7.752C13.3392 7.618 13.0736 6.702 13.1214 5.758ZM4.64761 5.882C4.71257 4.982 5.06222 4.126 6.13218 4.134C7.10662 4.14 7.46582 5.126 7.40468 6.084C7.34545 7.016 6.98242 7.884 5.95258 7.776C5.0049 7.676 4.57691 6.83 4.64761 5.882ZM10.2114 17.464C6.91937 17.442 4.27694 15.522 3.42861 12.562C3.09042 11.384 3.13055 10.64 4.63614 10.666C8.41159 10.728 12.187 10.726 15.9606 10.664C17.3439 10.644 17.3764 11.222 17.0477 12.374C16.1249 15.578 13.6219 17.482 10.2114 17.464Z" fill="#E0E0E0"/>
</svg>
