<svg width="170" height="21" viewBox="0 0 170 21" fill="none" xmlns="http://www.w3.org/2000/svg">
<path d="M56.5449 12.333C56.5449 13.8564 56.2197 15.0459 55.5693 15.9014C54.9189 16.751 54.0107 17.1758 52.8447 17.1758C51.8135 17.1758 50.9902 16.7803 50.375 15.9893L50.2607 17H47.9756V3.5H50.5156V8.34277C51.1016 7.65723 51.8721 7.31445 52.8271 7.31445C53.9873 7.31445 54.8955 7.74219 55.5518 8.59766C56.2139 9.44727 56.5449 10.6455 56.5449 12.1924V12.333ZM54.0049 12.1484C54.0049 11.1875 53.8525 10.4873 53.5479 10.0479C53.2432 9.60254 52.7891 9.37988 52.1855 9.37988C51.377 9.37988 50.8203 9.71094 50.5156 10.373V14.126C50.8262 14.7939 51.3887 15.1279 52.2031 15.1279C53.0234 15.1279 53.5625 14.7236 53.8203 13.915C53.9434 13.5283 54.0049 12.9395 54.0049 12.1484ZM62.4951 17.1758C61.1006 17.1758 59.9639 16.748 59.085 15.8926C58.2119 15.0371 57.7754 13.8975 57.7754 12.4736V12.2275C57.7754 11.2725 57.96 10.4199 58.3291 9.66992C58.6982 8.91406 59.2197 8.33398 59.8936 7.92969C60.5732 7.51953 61.3467 7.31445 62.2139 7.31445C63.5146 7.31445 64.5371 7.72461 65.2812 8.54492C66.0312 9.36523 66.4062 10.5283 66.4062 12.0342V13.0713H60.3506C60.4326 13.6924 60.6787 14.1904 61.0889 14.5654C61.5049 14.9404 62.0293 15.1279 62.6621 15.1279C63.6406 15.1279 64.4053 14.7734 64.9561 14.0645L66.2041 15.4619C65.8232 16.001 65.3076 16.4229 64.6572 16.7275C64.0068 17.0264 63.2861 17.1758 62.4951 17.1758ZM62.2051 9.37109C61.7012 9.37109 61.291 9.54102 60.9746 9.88086C60.6641 10.2207 60.4648 10.707 60.377 11.3398H63.9102V11.1377C63.8984 10.5752 63.7461 10.1416 63.4531 9.83691C63.1602 9.52637 62.7441 9.37109 62.2051 9.37109ZM75.8896 13.4053L77.6475 7.49023H80.3721L76.5488 18.4766L76.3379 18.9775C75.7695 20.2197 74.832 20.8408 73.5254 20.8408C73.1562 20.8408 72.7812 20.7852 72.4004 20.6738V18.749L72.7871 18.7578C73.2676 18.7578 73.625 18.6846 73.8594 18.5381C74.0996 18.3916 74.2871 18.1484 74.4219 17.8086L74.7207 17.0264L71.3896 7.49023H74.123L75.8896 13.4053ZM80.8379 12.1572C80.8379 11.2139 81.0195 10.373 81.3828 9.63477C81.7461 8.89648 82.2676 8.3252 82.9473 7.9209C83.6328 7.5166 84.4268 7.31445 85.3291 7.31445C86.6123 7.31445 87.6582 7.70703 88.4668 8.49219C89.2812 9.27734 89.7354 10.3438 89.8291 11.6914L89.8467 12.3418C89.8467 13.8008 89.4395 14.9727 88.625 15.8574C87.8105 16.7363 86.7178 17.1758 85.3467 17.1758C83.9756 17.1758 82.8799 16.7363 82.0596 15.8574C81.2451 14.9785 80.8379 13.7832 80.8379 12.2715V12.1572ZM83.3779 12.3418C83.3779 13.2441 83.5479 13.9355 83.8877 14.416C84.2275 14.8906 84.7139 15.1279 85.3467 15.1279C85.9619 15.1279 86.4424 14.8936 86.7881 14.4248C87.1338 13.9502 87.3066 13.1943 87.3066 12.1572C87.3066 11.2725 87.1338 10.5869 86.7881 10.1006C86.4424 9.61426 85.9561 9.37109 85.3291 9.37109C84.708 9.37109 84.2275 9.61426 83.8877 10.1006C83.5479 10.5811 83.3779 11.3281 83.3779 12.3418ZM97.1064 16.0332C96.4795 16.7949 95.6123 17.1758 94.5049 17.1758C93.4854 17.1758 92.7061 16.8828 92.167 16.2969C91.6338 15.7109 91.3613 14.8525 91.3496 13.7217V7.49023H93.8896V13.6338C93.8896 14.624 94.3408 15.1191 95.2432 15.1191C96.1045 15.1191 96.6963 14.8203 97.0186 14.2227V7.49023H99.5674V17H97.1768L97.1064 16.0332ZM106.827 9.87207C106.481 9.8252 106.177 9.80176 105.913 9.80176C104.952 9.80176 104.322 10.127 104.023 10.7773V17H101.483V7.49023H103.883L103.953 8.62402C104.463 7.75098 105.169 7.31445 106.071 7.31445C106.353 7.31445 106.616 7.35254 106.862 7.42871L106.827 9.87207ZM113.208 14.3721C113.208 14.0615 113.053 13.8184 112.742 13.6426C112.438 13.4609 111.945 13.2998 111.266 13.1592C109.004 12.6846 107.873 11.7236 107.873 10.2764C107.873 9.43262 108.222 8.72949 108.919 8.16699C109.622 7.59863 110.539 7.31445 111.67 7.31445C112.877 7.31445 113.841 7.59863 114.562 8.16699C115.288 8.73535 115.651 9.47363 115.651 10.3818H113.111C113.111 10.0186 112.994 9.71973 112.76 9.48535C112.525 9.24512 112.159 9.125 111.661 9.125C111.233 9.125 110.902 9.22168 110.668 9.41504C110.434 9.6084 110.316 9.85449 110.316 10.1533C110.316 10.4346 110.448 10.6631 110.712 10.8389C110.981 11.0088 111.433 11.1582 112.065 11.2871C112.698 11.4102 113.231 11.5508 113.665 11.709C115.007 12.2012 115.678 13.0537 115.678 14.2666C115.678 15.1338 115.306 15.8369 114.562 16.376C113.817 16.9092 112.856 17.1758 111.679 17.1758C110.882 17.1758 110.173 17.0352 109.552 16.7539C108.937 16.4668 108.453 16.0771 108.102 15.585C107.75 15.0869 107.574 14.5508 107.574 13.9766H109.982C110.006 14.4277 110.173 14.7734 110.483 15.0137C110.794 15.2539 111.21 15.374 111.731 15.374C112.218 15.374 112.584 15.2832 112.83 15.1016C113.082 14.9141 113.208 14.6709 113.208 14.3721ZM121.698 17.1758C120.304 17.1758 119.167 16.748 118.288 15.8926C117.415 15.0371 116.979 13.8975 116.979 12.4736V12.2275C116.979 11.2725 117.163 10.4199 117.532 9.66992C117.901 8.91406 118.423 8.33398 119.097 7.92969C119.776 7.51953 120.55 7.31445 121.417 7.31445C122.718 7.31445 123.74 7.72461 124.484 8.54492C125.234 9.36523 125.609 10.5283 125.609 12.0342V13.0713H119.554C119.636 13.6924 119.882 14.1904 120.292 14.5654C120.708 14.9404 121.232 15.1279 121.865 15.1279C122.844 15.1279 123.608 14.7734 124.159 14.0645L125.407 15.4619C125.026 16.001 124.511 16.4229 123.86 16.7275C123.21 17.0264 122.489 17.1758 121.698 17.1758ZM121.408 9.37109C120.904 9.37109 120.494 9.54102 120.178 9.88086C119.867 10.2207 119.668 10.707 119.58 11.3398H123.113V11.1377C123.102 10.5752 122.949 10.1416 122.656 9.83691C122.363 9.52637 121.947 9.37109 121.408 9.37109ZM129.74 17H127.191V3.5H129.74V17ZM132.535 17V9.35352H131.12V7.49023H132.535V6.68164C132.535 5.61523 132.84 4.78906 133.449 4.20312C134.064 3.61133 134.923 3.31543 136.024 3.31543C136.376 3.31543 136.807 3.37402 137.316 3.49121L137.29 5.45996C137.079 5.40723 136.821 5.38086 136.517 5.38086C135.562 5.38086 135.084 5.8291 135.084 6.72559V7.49023H136.974V9.35352H135.084V17H132.535Z" fill="#E0E0E0"/>
<circle cx="4.11101" cy="13.2906" r="4.11101" fill="#E0E0E0"/>
<circle cx="17.8144" cy="13.2906" r="4.11101" fill="#E0E0E0"/>
<circle cx="31.5177" cy="13.2906" r="4.11101" fill="#E0E0E0"/>
</svg>
