<svg width="197" height="171" viewBox="0 0 197 171" fill="none" xmlns="http://www.w3.org/2000/svg">
<path d="M152.548 0H145.954C142.075 0 138.228 0.695005 134.595 2.05207L110.052 11.2186C103.983 13.4854 99.9593 19.2829 99.9593 25.7616C99.9593 36.8404 88.6879 44.3534 78.462 40.0908L54.2472 29.9971C35.4059 22.1432 14.0238 33.1004 9.39509 52.9814L1.61608 86.3933C0.542225 91.0057 0 95.7652 0 100.501C0 133.238 24.2999 161.202 56.7654 165.407L65.0938 166.485C87.1754 169.345 109.381 162.202 125.656 147.007L140.089 133.53L180.158 92.2794C189.652 82.5048 189.993 67.0591 180.938 56.8754L172.228 47.0783C168.093 42.4285 168.245 35.3772 172.574 30.9089C176.242 27.1241 176.979 21.3764 174.386 16.7884L170.972 10.7495C167.218 4.10714 160.178 0 152.548 0Z" fill="#C4C4C4" fill-opacity="0.04"/>
<rect x="107" y="52.9999" width="8" height="2" fill="#ADADB8" fill-opacity="0.22"/>
<rect x="110" y="58" width="8" height="2" transform="rotate(-90 110 58)" fill="#ADADB8" fill-opacity="0.22"/>
<rect x="165" y="73.9999" width="8" height="2" fill="#ADADB8" fill-opacity="0.22"/>
<rect x="168" y="79" width="8" height="2" transform="rotate(-90 168 79)" fill="#ADADB8" fill-opacity="0.22"/>
<rect x="15" y="65.9999" width="8" height="2" fill="#ADADB8" fill-opacity="0.22"/>
<rect x="18" y="71" width="8" height="2" transform="rotate(-90 18 71)" fill="#ADADB8" fill-opacity="0.22"/>
<rect x="82" y="152" width="8" height="2" fill="#ADADB8" fill-opacity="0.22"/>
<rect x="85" y="157" width="8" height="2" transform="rotate(-90 85 157)" fill="#ADADB8" fill-opacity="0.22"/>
<path d="M44.2301 149.208C45.6835 149.208 46.8617 148.03 46.8617 146.577C46.8617 145.123 45.6835 143.945 44.2301 143.945C42.7766 143.945 41.5984 145.123 41.5984 146.577C41.5984 148.03 42.7766 149.208 44.2301 149.208Z" fill="#ADADB8" fill-opacity="0.22"/>
<path d="M35.0056 151.205C31.6888 151.205 29 153.894 29 157.211H41.0112C41.0112 153.894 38.3224 151.205 35.0056 151.205Z" fill="#ADADB8" fill-opacity="0.22"/>
<path d="M44.2301 150.997C42.9907 150.997 41.8624 151.47 41.0145 152.246C41.8619 153.267 42.4259 154.474 42.6668 155.767H49C49 153.133 46.8644 150.997 44.2301 150.997Z" fill="#ADADB8" fill-opacity="0.22"/>
<path d="M35.0056 149.416C36.8356 149.416 38.3191 147.933 38.3191 146.103C38.3191 144.273 36.8356 142.789 35.0056 142.789C33.1756 142.789 31.6921 144.273 31.6921 146.103C31.6921 147.933 33.1756 149.416 35.0056 149.416Z" fill="#ADADB8" fill-opacity="0.22"/>
<circle cx="67" cy="98" r="40" fill="#ADADB8" fill-opacity="0.22"/>
<rect x="46.458" y="86.6283" width="10" height="2.5" transform="rotate(45.5 46.458 86.6283)" fill="#1F1F23" fill-opacity="0.55"/>
<rect x="44.6284" y="93.6838" width="10" height="2.5" transform="rotate(-44.5 44.6284 93.6838)" fill="#1F1F23" fill-opacity="0.55"/>
<rect x="79.458" y="86.6283" width="10" height="2.5" transform="rotate(45.5 79.458 86.6283)" fill="#1F1F23" fill-opacity="0.55"/>
<rect x="77.6284" y="93.6838" width="10" height="2.5" transform="rotate(-44.5 77.6284 93.6838)" fill="#1F1F23" fill-opacity="0.55"/>
<circle cx="67" cy="98" r="34" stroke="#1F1F23" stroke-opacity="0.55" stroke-width="2"/>
<rect x="106.623" y="123" width="43.9311" height="12" rx="5" transform="rotate(33.5 106.623 123)" fill="#ADADB8" fill-opacity="0.22"/>
<path d="M77.9543 111.233C77.9969 112.453 76.5031 113.104 75.5912 112.292C68.3093 105.813 63.5021 106.012 56.6903 112.957C55.8332 113.831 54.2953 113.283 54.2525 112.059C54.2398 111.693 54.381 111.332 54.6383 111.071C63.4493 102.144 68.6032 102.498 77.4988 110.275C77.775 110.516 77.9415 110.866 77.9543 111.233Z" fill="#1F1F23" fill-opacity="0.55"/>
<g clip-path="url(#clip0)">
<path d="M128 96.1666C130.301 96.1666 132.167 94.3012 132.167 92C132.167 89.6988 130.301 87.8333 128 87.8333C125.699 87.8333 123.833 89.6988 123.833 92C123.833 94.3012 125.699 96.1666 128 96.1666Z" fill="#ADADB8" fill-opacity="0.22"/>
<path d="M128 97.8333C123.833 97.8333 120.5 100.442 120.5 103.667V106.583C120.504 106.697 120.553 106.804 120.636 106.882C120.718 106.96 120.828 107.002 120.942 107H135.058C135.172 107.002 135.282 106.96 135.364 106.882C135.447 106.804 135.496 106.697 135.5 106.583V103.667C135.5 100.442 132.167 97.8333 128 97.8333Z" fill="#ADADB8" fill-opacity="0.22"/>
</g>
<circle cx="49" cy="51" r="4" fill="#ADADB8" fill-opacity="0.22"/>
<circle cx="147" cy="33" r="4" fill="#ADADB8" fill-opacity="0.22"/>
<circle cx="14" cy="119" r="4" fill="#ADADB8" fill-opacity="0.22"/>
<defs>
<clipPath id="clip0">
<rect width="20" height="20" fill="white" transform="translate(118 87)"/>
</clipPath>
</defs>
</svg>
