<svg width="15" height="15" viewBox="0 0 15 15" fill="none" xmlns="http://www.w3.org/2000/svg">
<path d="M4.46706 0.738852C3.19274 1.47452 2.28111 2.66258 1.9003 4.08388C1.5194 5.50519 1.71495 6.98983 2.45062 8.26415C3.43186 9.9636 5.26149 11.0194 7.22569 11.0194C7.84588 11.0194 8.46124 10.9126 9.04462 10.7078L11.5227 15L13.2897 13.9798L10.812 9.68832C11.6489 8.97223 12.2515 8.02249 12.5428 6.93548C12.9236 5.51417 12.728 4.02961 11.9924 2.75521C11.0112 1.05576 9.18149 0 7.21737 0C6.2553 0 5.30425 0.255452 4.46706 0.738852ZM10.2254 3.77538C10.6887 4.57773 10.8117 5.51254 10.5719 6.40743C10.3322 7.30233 9.75817 8.05032 8.95583 8.51356C8.42844 8.81807 7.83012 8.97901 7.22569 8.97901C5.98818 8.97901 4.83554 8.31418 4.21764 7.24398C3.7544 6.44163 3.63133 5.5069 3.87119 4.61193C4.11097 3.71703 4.68497 2.96904 5.48731 2.50571C6.01462 2.20129 6.61293 2.04035 7.21737 2.04035C8.45496 2.04035 9.60751 2.70518 10.2254 3.77538Z" fill="#E0E0E0"/>
</svg>
